<?xml version="1.0" standalone="no"?>
<!DOCTYPE svg PUBLIC "-//W3C//DTD SVG 1.1//EN" "http://www.w3.org/Graphics/SVG/1.1/DTD/svg11.dtd" >
<svg xmlns="http://www.w3.org/2000/svg" xmlns:xlink="http://www.w3.org/1999/xlink" version="1.1">
<metadata>
Created by FontForge 20201107 at Wed Feb  7 15:40:11 2018
 By Unknown
Copyright NAL 2018
</metadata>
<defs>
<font id="Astrolab" horiz-adv-x="4608" >
  <font-face 
    font-family="Astrolab"
    font-weight="400"
    font-stretch="normal"
    units-per-em="4096"
    panose-1="0 0 4 0 0 0 0 0 0 0"
    ascent="4096"
    descent="0"
    x-height="4096"
    cap-height="4096"
    bbox="0 -1024 4096 4608"
    underline-thickness="204"
    underline-position="307"
    unicode-range="U+0020-201D"
  />
<missing-glyph horiz-adv-x="0" 
d="M2048 581v651h-652v-651h652zM2699 1343v651h-1303v-651h1303zM2048 2101v651h-652v-651h652zM2699 2863v647h-651q-271 0 -459 -189q-193 -192 -193 -458h1303zM0 0v4096h4096v-4096h-4096z" />
    <glyph glyph-name=".notdef" horiz-adv-x="0" 
d="M2048 581v651h-652v-651h652zM2699 1343v651h-1303v-651h1303zM2048 2101v651h-652v-651h652zM2699 2863v647h-651q-271 0 -459 -189q-193 -192 -193 -458h1303zM0 0v4096h4096v-4096h-4096z" />
    <glyph glyph-name="glyph1" horiz-adv-x="0" 
 />
    <glyph glyph-name="glyph2" horiz-adv-x="2048" 
 />
    <glyph glyph-name="space" unicode=" " horiz-adv-x="2048" 
 />
    <glyph glyph-name="exclam" unicode="!" horiz-adv-x="1536" 
d="M0 0v1024h1024v-1024h-1024zM0 1536v2560h1024v-2048l-512 -512h-512z" />
    <glyph glyph-name="quotedbl" unicode="&#x22;" horiz-adv-x="3072" 
d="M0 2560v1536h1024v-1024l-512 -512h-512zM1536 2560v1536h1024v-1024l-512 -512h-512z" />
    <glyph glyph-name="numbersign" unicode="#" 
d="M2560 1536v1024h-1024v-1024h1024zM512 0v512h-512v1024h512v1024h-512v1024h512v512h1024v-512h1024v512h1024v-512h512v-1024h-512v-1024h512v-1024h-512v-512h-1024v512h-1024v-512h-1024z" />
    <glyph glyph-name="dollar" unicode="$" 
d="M3072 1024v512h-512v-512h512zM1536 2560v512h-512v-512h512zM1536 -512v512h-1536v1024h1536v512h-1024l-512 512v1536l512 512h1024v512h1024v-512h1536v-1024h-1536v-512h1024l512 -512v-1536l-512 -512h-1024v-512h-1024z" />
    <glyph glyph-name="percent" unicode="%" 
d="M3072 0v1024h1024v-1024h-1024zM0 3072v1024h1024v-1024h-1024zM0 0v768l3328 3328h768v-768l-3328 -3328h-768z" />
    <glyph glyph-name="ampersand" unicode="&#x26;" 
d="M2560 1024v512h-1536v-512h1536zM512 0l-512 512v1024l512 512l-512 512v1024l512 512h1536v-1024h-1024v-512h1536v1024h512l512 -512v-512h512v-1024h-512v-512h512v-1024h-3584z" />
    <glyph glyph-name="quotesingle" unicode="'" horiz-adv-x="1536" 
d="M0 2560v1536h1024v-1024l-512 -512h-512z" />
    <glyph glyph-name="parenleft" unicode="(" horiz-adv-x="2048" 
d="M512 -512l-512 512v4096l512 512h1024v-1024h-512v-3072h512v-1024h-1024z" />
    <glyph glyph-name="parenright" unicode=")" horiz-adv-x="2048" 
d="M0 -512v1024h512v3072h-512v1024h1024l512 -512v-4096l-512 -512h-1024z" />
    <glyph glyph-name="asterisk" unicode="*" 
d="M0 0v768l768 768h-768v1024h768l-768 768v768h768l768 -768v768h1024v-768l768 768h768v-768l-768 -768h768v-1024h-768l768 -768v-768h-768l-768 768v-768h-1024v768l-768 -768h-768z" />
    <glyph glyph-name="plus" unicode="+" horiz-adv-x="3584" 
d="M1024 512v1024h-1024v1024h1024v1024h1024v-1024h1024v-512l-512 -512h-512v-1024h-1024z" />
    <glyph glyph-name="comma" unicode="," horiz-adv-x="1536" 
d="M0 -512v1536h1024v-1024l-512 -512h-512z" />
    <glyph glyph-name="hyphen" unicode="-" horiz-adv-x="3584" 
d="M0 1536v1024h3072v-1024h-3072z" />
    <glyph glyph-name="period" unicode="." horiz-adv-x="1536" 
d="M0 0v1024h1024v-1024h-1024z" />
    <glyph glyph-name="slash" unicode="/" 
d="M0 0v768l3328 3328h768v-768l-3328 -3328h-768z" />
    <glyph glyph-name="zero" unicode="0" 
d="M3072 1024v2048h-2048v-2048h2048zM512 0l-512 512v3072l512 512h3072l512 -512v-3072l-512 -512h-3072z" />
    <glyph glyph-name="one" unicode="1" horiz-adv-x="2048" 
d="M512 0v3072h-512v1024h1024l512 -512v-3584h-1024z" />
    <glyph glyph-name="two" unicode="2" 
d="M0 0v2048l512 512h2560v512h-3072v1024h3584l512 -512v-1536l-512 -512h-2560v-512h3072v-1024h-4096z" />
    <glyph glyph-name="three" unicode="3" 
d="M0 0v1024h3072v512h-2560v1024h2560v512h-3072v1024h3584l512 -512v-1024l-512 -512l512 -512v-1024l-512 -512h-3584z" />
    <glyph glyph-name="four" unicode="4" 
d="M3072 0v1024h-2560l-512 512v2560h1024v-2048h2048v2048h1024v-4096h-1024z" />
    <glyph glyph-name="five" unicode="5" 
d="M0 0v1024h3072v512h-3072v2560h4096v-1024h-3072v-512h2560l512 -512v-1536l-512 -512h-3584z" />
    <glyph glyph-name="six" unicode="6" 
d="M3072 1024v512h-2048v-512h2048zM512 0l-512 512v3072l512 512h3584v-1024h-3072v-512h2560l512 -512v-1536l-512 -512h-3072z" />
    <glyph glyph-name="seven" unicode="7" 
d="M0 0v768l2304 2304h-2304v512l512 512h3584v-768l-3328 -3328h-768z" />
    <glyph glyph-name="eight" unicode="8" 
d="M3072 1024v512h-2048v-512h2048zM3072 2560v512h-2048v-512h2048zM512 0l-512 512v1024l512 512l-512 512v1024l512 512h3072l512 -512v-1024l-512 -512l512 -512v-1024l-512 -512h-3072z" />
    <glyph glyph-name="nine" unicode="9" 
d="M3072 2560v512h-2048v-512h2048zM0 0v1024h3072v512h-2560l-512 512v1536l512 512h3072l512 -512v-3072l-512 -512h-3584z" />
    <glyph glyph-name="colon" unicode=":" horiz-adv-x="1536" 
d="M0 0v1024h1024v-1024h-1024zM0 1536v1024h1024v-1024h-1024z" />
    <glyph glyph-name="semicolon" unicode=";" horiz-adv-x="1536" 
d="M0 -512v1536h1024v-1024l-512 -512h-512zM0 1536v1024h1024v-1024h-1024z" />
    <glyph glyph-name="less" unicode="&#x3c;" horiz-adv-x="2048" 
d="M512 -512l-512 512v4096l512 512h1024v-1024h-512v-3072h512v-1024h-1024z" />
    <glyph glyph-name="equal" unicode="=" horiz-adv-x="3584" 
d="M0 512v1024h3072v-1024h-3072zM0 2048v1024h3072v-1024h-3072z" />
    <glyph glyph-name="greater" unicode="&#x3e;" horiz-adv-x="2048" 
d="M0 -512v1024h512v3072h-512v1024h1024l512 -512v-4096l-512 -512h-1024z" />
    <glyph glyph-name="question" unicode="?" 
d="M0 0v1024h1024v-1024h-1024zM0 1536v512l512 512h2560v512h-3072v1024h3584l512 -512v-1536l-512 -512h-3584z" />
    <glyph glyph-name="at" unicode="@" 
d="M512 0l-512 512v3072l512 512h3072l512 -512v-2048h-2560v1024h1536v512h-2048v-2048h3072v-1024h-3584z" />
    <glyph glyph-name="A" unicode="A" 
d="M3072 2048v1024h-2048v-1024h2048zM0 0v3584l512 512h3072l512 -512v-3584h-1024v1024h-2048v-1024h-1024z" />
    <glyph glyph-name="B" unicode="B" 
d="M3072 1024v512h-2048v-512h2048zM3072 2560v512h-2048v-512h2048zM0 0v4096h3584l512 -512v-1024l-512 -512l512 -512v-1024l-512 -512h-3584z" />
    <glyph glyph-name="C" unicode="C" 
d="M512 0l-512 512v3072l512 512h3072l512 -512v-1024h-1024v512h-2048v-2048h2048v512h1024v-1024l-512 -512h-3072z" />
    <glyph glyph-name="D" unicode="D" 
d="M3072 1024v2048h-2048v-2048h2048zM0 0v4096h3584l512 -512v-3072l-512 -512h-3584z" />
    <glyph glyph-name="E" unicode="E" 
d="M0 0v4096h4096v-1024h-3072v-512h2560v-1024h-2560v-512h3072v-1024h-4096z" />
    <glyph glyph-name="F" unicode="F" 
d="M0 0v4096h4096v-1024h-3072v-512h2560v-1024h-2560v-1536h-1024z" />
    <glyph glyph-name="G" unicode="G" 
d="M512 0l-512 512v3072l512 512h3584v-1024h-3072v-2048h2048v512h-1536v1024h2560v-2048l-512 -512h-3072z" />
    <glyph glyph-name="H" unicode="H" 
d="M0 0v4096h1024v-1536h2048v1536h1024v-4096h-1024v1536h-2048v-1536h-1024z" />
    <glyph glyph-name="I" unicode="I" horiz-adv-x="1536" 
d="M0 0v4096h1024v-4096h-1024z" />
    <glyph glyph-name="J" unicode="J" 
d="M512 0l-512 512v1024h1024v-512h2048v3072h1024v-3584l-512 -512h-3072z" />
    <glyph glyph-name="K" unicode="K" 
d="M512 0l-512 512v3584h1024v-2048l2048 2048h1024v-512l-1536 -1536l1536 -1536v-512h-1024l-1024 1024v2l-256 254l-768 -768v-512h-512z" />
    <glyph glyph-name="L" unicode="L" 
d="M0 0v4096h1024v-3072h3072v-1024h-4096z" />
    <glyph glyph-name="M" unicode="M" 
d="M512 0l-512 512v3584h1024l1024 -1024l1024 1024h1024v-4096h-1024v2560l-1024 -1024l-1024 1024v-2560h-512z" />
    <glyph glyph-name="N" unicode="N" 
d="M512 0l-512 512v3584h1024l2048 -2048v2048h1024v-4096h-1024v512l-2048 2048v-2560h-512z" />
    <glyph glyph-name="O" unicode="O" 
d="M3072 1024v2048h-2048v-2048h2048zM512 0l-512 512v3072l512 512h3072l512 -512v-3072l-512 -512h-3072z" />
    <glyph glyph-name="P" unicode="P" 
d="M3072 2560v512h-2048v-512h2048zM0 0v4096h3584l512 -512v-1536l-512 -512h-2560v-1536h-1024z" />
    <glyph glyph-name="Q" unicode="Q" 
d="M3072 1024v2048h-2048v-2048h2048zM3072 -1024l-1024 1024h-1536l-512 512v3072l512 512h3072l512 -512v-3072l-512 -512l512 -512l-512 -512h-512z" />
    <glyph glyph-name="R" unicode="R" 
d="M3072 2560v512h-2048v-512h2048zM0 0v4096h3584l512 -512v-1536l-512 -512h-512l1024 -1024l-512 -512h-512l-1536 1536h-512v-1536h-1024z" />
    <glyph glyph-name="S" unicode="S" 
d="M0 0v1024h3072v512h-2560l-512 512v1536l512 512h3584v-1024h-3072v-512h2560l512 -512v-1536l-512 -512h-3584z" />
    <glyph glyph-name="T" unicode="T" 
d="M1536 0v3072h-1536v1024h4096v-1024h-1536v-3072h-1024z" />
    <glyph glyph-name="U" unicode="U" 
d="M512 0l-512 512v3072l512 512h512v-3072h2048v3072h1024v-3584l-512 -512h-3072z" />
    <glyph glyph-name="V" unicode="V" 
d="M1536 0l-1536 1536v2048l512 512h512v-2048l1024 -1024l1024 1024v2048h1024v-2560l-1536 -1536h-1024z" />
    <glyph glyph-name="W" unicode="W" 
d="M0 0v3584l512 512h512v-2560l1024 1024l1024 -1024v2560h1024v-4096h-1024l-1024 1024l-1024 -1024h-1024z" />
    <glyph glyph-name="X" unicode="X" 
d="M0 0v768l1280 1280l-1280 1280v768h768l1280 -1280l1280 1280h768v-768l-1280 -1280l1280 -1280v-768h-768l-1280 1280l-1280 -1280h-768z" />
    <glyph glyph-name="Y" unicode="Y" 
d="M2048 0l-512 512v1280l-1536 1536v768h768l1280 -1280l1280 1280h768v-768l-1536 -1536v-1792h-512z" />
    <glyph glyph-name="Z" unicode="Z" 
d="M0 0v768l2304 2304h-2304v512l512 512h3584v-768l-2304 -2304h2304v-1024h-4096z" />
    <glyph glyph-name="bracketleft" unicode="[" horiz-adv-x="2048" 
d="M0 -512v5120h1536v-1024h-512v-3072h512v-1024h-1536z" />
    <glyph glyph-name="backslash" unicode="\" 
d="M3328 0l-3328 3328v768h768l3328 -3328v-768h-768z" />
    <glyph glyph-name="bracketright" unicode="]" horiz-adv-x="2048" 
d="M0 -512v1024h512v3072h-512v1024h1536v-5120h-1536z" />
    <glyph glyph-name="asciicircum" unicode="^" horiz-adv-x="1536" 
d="M0 2560v1536h1024v-1024l-512 -512h-512z" />
    <glyph glyph-name="underscore" unicode="_" 
d="M0 0v1024h4096v-512l-512 -512h-3584z" />
    <glyph glyph-name="grave" unicode="`" horiz-adv-x="1536" 
d="M512 2560l-512 512v1024h1024v-1536h-512z" />
    <glyph glyph-name="a" unicode="a" 
d="M3072 2048v1024h-2048v-1024h2048zM0 0v3584l512 512h3072l512 -512v-3584h-1024v1024h-2048v-1024h-1024z" />
    <glyph glyph-name="b" unicode="b" 
d="M3072 1024v512h-2048v-512h2048zM3072 2560v512h-2048v-512h2048zM0 0v4096h3584l512 -512v-1024l-512 -512l512 -512v-1024l-512 -512h-3584z" />
    <glyph glyph-name="c" unicode="c" 
d="M512 0l-512 512v3072l512 512h3072l512 -512v-1024h-1024v512h-2048v-2048h2048v512h1024v-1024l-512 -512h-3072z" />
    <glyph glyph-name="d" unicode="d" 
d="M3072 1024v2048h-2048v-2048h2048zM0 0v4096h3584l512 -512v-3072l-512 -512h-3584z" />
    <glyph glyph-name="e" unicode="e" 
d="M0 0v4096h4096v-1024h-3072v-512h2560v-1024h-2560v-512h3072v-1024h-4096z" />
    <glyph glyph-name="f" unicode="f" 
d="M0 0v4096h4096v-1024h-3072v-512h2560v-1024h-2560v-1536h-1024z" />
    <glyph glyph-name="g" unicode="g" 
d="M512 0l-512 512v3072l512 512h3584v-1024h-3072v-2048h2048v512h-1536v1024h2560v-2048l-512 -512h-3072z" />
    <glyph glyph-name="h" unicode="h" 
d="M0 0v4096h1024v-1536h2048v1536h1024v-4096h-1024v1536h-2048v-1536h-1024z" />
    <glyph glyph-name="i" unicode="i" horiz-adv-x="1536" 
d="M0 0v4096h1024v-4096h-1024z" />
    <glyph glyph-name="j" unicode="j" 
d="M512 0l-512 512v1024h1024v-512h2048v3072h1024v-3584l-512 -512h-3072z" />
    <glyph glyph-name="k" unicode="k" 
d="M512 0l-512 512v3584h1024v-2048l2048 2048h1024v-512l-1536 -1536l1536 -1536v-512h-1024l-1024 1024v2l-256 254l-768 -768v-512h-512z" />
    <glyph glyph-name="l" unicode="l" 
d="M0 0v4096h1024v-3072h3072v-1024h-4096z" />
    <glyph glyph-name="m" unicode="m" 
d="M512 0l-512 512v3584h1024l1024 -1024l1024 1024h1024v-4096h-1024v2560l-1024 -1024l-1024 1024v-2560h-512z" />
    <glyph glyph-name="n" unicode="n" 
d="M512 0l-512 512v3584h1024l2048 -2048v2048h1024v-4096h-1024v512l-2048 2048v-2560h-512z" />
    <glyph glyph-name="o" unicode="o" 
d="M3072 1024v2048h-2048v-2048h2048zM512 0l-512 512v3072l512 512h3072l512 -512v-3072l-512 -512h-3072z" />
    <glyph glyph-name="p" unicode="p" 
d="M3072 2560v512h-2048v-512h2048zM0 0v4096h3584l512 -512v-1536l-512 -512h-2560v-1536h-1024z" />
    <glyph glyph-name="q" unicode="q" 
d="M3072 1024v2048h-2048v-2048h2048zM3072 -1024l-1024 1024h-1536l-512 512v3072l512 512h3072l512 -512v-3072l-512 -512l512 -512l-512 -512h-512z" />
    <glyph glyph-name="r" unicode="r" 
d="M3072 2560v512h-2048v-512h2048zM0 0v4096h3584l512 -512v-1536l-512 -512h-512l1024 -1024l-512 -512h-512l-1536 1536h-512v-1536h-1024z" />
    <glyph glyph-name="s" unicode="s" 
d="M0 0v1024h3072v512h-2560l-512 512v1536l512 512h3584v-1024h-3072v-512h2560l512 -512v-1536l-512 -512h-3584z" />
    <glyph glyph-name="t" unicode="t" 
d="M1536 0v3072h-1536v1024h4096v-1024h-1536v-3072h-1024z" />
    <glyph glyph-name="u" unicode="u" 
d="M512 0l-512 512v3072l512 512h512v-3072h2048v3072h1024v-3584l-512 -512h-3072z" />
    <glyph glyph-name="v" unicode="v" 
d="M1536 0l-1536 1536v2048l512 512h512v-2048l1024 -1024l1024 1024v2048h1024v-2560l-1536 -1536h-1024z" />
    <glyph glyph-name="w" unicode="w" 
d="M0 0v3584l512 512h512v-2560l1024 1024l1024 -1024v2560h1024v-4096h-1024l-1024 1024l-1024 -1024h-1024z" />
    <glyph glyph-name="x" unicode="x" 
d="M0 0v768l1280 1280l-1280 1280v768h768l1280 -1280l1280 1280h768v-768l-1280 -1280l1280 -1280v-768h-768l-1280 1280l-1280 -1280h-768z" />
    <glyph glyph-name="y" unicode="y" 
d="M2048 0l-512 512v1280l-1536 1536v768h768l1280 -1280l1280 1280h768v-768l-1536 -1536v-1792h-512z" />
    <glyph glyph-name="z" unicode="z" 
d="M0 0v768l2304 2304h-2304v512l512 512h3584v-768l-2304 -2304h2304v-1024h-4096z" />
    <glyph glyph-name="braceleft" unicode="{" horiz-adv-x="2560" 
d="M1024 -512l-512 512v1536h-512v1024h512v1536l512 512h1024v-1024h-512v-1024l-512 -512l512 -512v-1024h512v-1024h-1024z" />
    <glyph glyph-name="bar" unicode="|" horiz-adv-x="1536" 
d="M0 0v4096h1024v-4096h-1024z" />
    <glyph glyph-name="braceright" unicode="}" horiz-adv-x="2560" 
d="M0 -512v1024h512v1024l512 512l-512 512v1024h-512v1024h1024l512 -512v-1536h512v-1024h-512v-1536l-512 -512h-1024z" />
    <glyph glyph-name="asciitilde" unicode="~" horiz-adv-x="3584" 
d="M0 1536v1024h3072v-1024h-3072z" />
    <glyph glyph-name="quoteleft" unicode="&#x2018;" horiz-adv-x="1536" 
d="M0 2560v1024l512 512h512v-1536h-1024z" />
    <glyph glyph-name="quoteright" unicode="&#x2019;" horiz-adv-x="1536" 
d="M0 2560v1536h1024v-1024l-512 -512h-512z" />
    <glyph glyph-name="quotedblleft" unicode="&#x201c;" horiz-adv-x="3072" 
d="M0 2560v1024l512 512h512v-1536h-1024zM1536 2560v1024l512 512h512v-1536h-1024z" />
    <glyph glyph-name="quotedblright" unicode="&#x201d;" horiz-adv-x="3072" 
d="M0 2560v1536h1024v-1024l-512 -512h-512zM1536 2560v1536h1024v-1024l-512 -512h-512z" />
  </font>
</defs>
</svg>
